PathFileType	4	(X/Y/Z)	c:\Git\powerlifing_model_clean\simulations\HC835B\Session1\HC835B_CUT_0004\marker_experimental.trc
DataRate	CameraRate	NumFrames	NumMarkers	Units	OrigDataRate	OrigDataStartFrame	OrigNumFrames
240.000000	240.000000	4	38	mm	240.000000	28	77
Frame#	Time	RPSI			LPSI			RASI			LASI			RTH1			RTH2			RTH3			RTH4			RSK1			RSK2			RSK3			RSK4			RCAL1			RCAL2			RCAL3			RST			RPT			RTN			RFMB			RSMB			RVMB			RFMH			RSMH			RVMH			RPM			LTH1			LTH2			LTH3			LTH4			LSK1			LSK2			LSK3			LSK4			LCAL1			LCAL2			LCAL3			LFMH			LVMH			
		X1	Y1	Z1	X2	Y2	Z2	X3	Y3	Z3	X4	Y4	Z4	X5	Y5	Z5	X6	Y6	Z6	X7	Y7	Z7	X8	Y8	Z8	X9	Y9	Z9	X10	Y10	Z10	X11	Y11	Z11	X12	Y12	Z12	X13	Y13	Z13	X14	Y14	Z14	X15	Y15	Z15	X16	Y16	Z16	X17	Y17	Z17	X18	Y18	Z18	X19	Y19	Z19	X20	Y20	Z20	X21	Y21	Z21	X22	Y22	Z22	X23	Y23	Z23	X24	Y24	Z24	X25	Y25	Z25	X26	Y26	Z26	X27	Y27	Z27	X28	Y28	Z28	X29	Y29	Z29	X30	Y30	Z30	X31	Y31	Z31	X32	Y32	Z32	X33	Y33	Z33	X34	Y34	Z34	X35	Y35	Z35	X36	Y36	Z36	X37	Y37	Z37	X38	Y38	Z38	

29	0.1166666666666667	174.5658111572266	1011.737060546875	-207.4337921142579	84.3035125732422	963.7482910156252	-180.1537780761719	196.0337371826172	1001.090637207031	-433.864227294922	-11.19615077972412	901.951843261719	-365.8055114746094	346.5916748046876	777.2996826171877	-482.339080810547	317.3279418945313	783.5124511718752	-535.1745605468751	344.1781921386719	709.9369506835939	-533.3191528320314	306.4228820800782	710.7780761718751	-578.3432006835939	463.7834777832032	304.1582641601563	-494.7285461425782	452.130096435547	276.1992797851563	-548.5521850585939	475.5111694335939	246.8310852050782	-500.7388000488282	453.9675598144532	217.4148559570313	-548.2302856445314	504.6287231445314	99.07398223876956	-406.2998657226564	474.1060791015626	59.3713836669922	-400.9245605468751	537.3754272460939	63.4172821044922	-414.6292114257814	439.3626708984376	62.59703445434572	-464.5322265625001	545.4220581054689	70.51699829101564	-479.0503540039064	436.8072204589845	76.45171356201173	-524.7019653320314	437.4788208007814	66.06424713134767	-558.2770996093751	479.6062927246095	91.81748199462892	-575.8882446289064	549.5333251953126	44.54455184936524	-521.4044189453126	430.0840454101564	46.1565284729004	-608.6519165039064	478.3460388183595	57.68869018554689	-636.0219116210939	547.5559692382814	34.84214401245118	-600.6140747070314	454.2990112304689	37.32085037231446	-691.1703491210939	42.66162490844727	596.9068603515626	-338.8656311035157	20.40941810607911	598.1766967773439	-394.9972229003907	59.43293762207033	527.1729125976564	-386.2315673828126	48.3569793701172	535.1201171875001	-446.0302124023439	252.249496459961	483.1001281738282	-195.055648803711	270.0758361816407	435.3364868164064	-179.4001922607422	283.0409545898438	472.2203674316407	-148.9980010986328	314.1021118164063	426.0557556152345	-142.7086486816407	378.2917480468751	557.9628295898439	-48.56507110595705	366.3999938964844	554.1167602539064	-2.243704319000245	418.394744873047	569.0303955078126	-25.79784774780274	498.5866699218751	362.2359313964844	-29.23697090148926	408.9294433593751	368.6171569824219	35.42206954956055	
30	0.1208333333333333	168.4417572021485	1012.985717773438	-224.9373779296876	78.02572631835939	963.7925415039065	-196.9192199707032	192.4734191894532	1000.887084960938	-451.9185180664064	-14.62237071990967	899.4780883789065	-383.0173645019532	343.6892395019532	776.7077636718752	-496.1563110351564	315.3884887695313	782.850524902344	-549.5241699218751	341.7507324218751	709.1792602539064	-546.8808593750001	304.3503112792969	709.8438720703126	-592.2619628906251	462.5051574707032	304.3819580078126	-498.8963317871095	452.7017822265626	275.3818359375001	-552.6192626953126	475.0545349121095	247.0120697021485	-503.7231445312501	455.0792846679689	216.4562530517579	-551.3472290039064	504.7490844726564	99.97595214843753	-407.1965332031251	474.0082092285157	60.00155258178712	-401.6031494140626	537.3261108398439	64.09400939941408	-415.1925354003907	439.4544372558595	62.75259017944337	-465.2264709472657	545.5270385742189	70.94609832763673	-479.6080932617189	436.8746948242189	76.41704559326173	-525.4411010742189	437.6891479492189	66.11489105224611	-559.0253295898439	479.9174804687501	91.7102508544922	-576.5445556640626	549.6930541992189	44.7044906616211	-521.7943725585939	430.5639953613282	46.18994140625001	-609.1700439453126	478.7815856933595	57.42139434814455	-636.5626831054689	547.9061889648439	34.70235061645509	-600.9708251953126	454.5097656250001	36.87588119506837	-691.6083374023439	32.61644363403321	597.4451293945314	-363.2215576171876	9.64340114593506	601.0923461914064	-418.9047241210939	47.72509002685548	529.2068481445314	-412.8527221679689	36.44407653808594	539.1757202148439	-472.4308471679689	240.0749816894532	482.4677734375001	-226.9570465087891	258.0193786621094	434.6622314453126	-211.9039764404297	271.2908935546876	471.2247619628907	-180.9802398681641	302.1425476074219	424.859100341797	-175.5342559814453	367.9961547851563	554.9448242187501	-78.41037750244142	356.3337097167969	549.6766357421876	-32.37766265869141	408.3553161621095	565.0811157226564	-55.4957618713379	487.2910156250001	358.1230468750001	-65.73686981201173	397.2381896972657	363.2732543945313	-0.9418498873710635	
31	0.125	162.3429107666016	1014.025024414063	-242.4724731445313	71.56958007812501	964.371032714844	-213.8728332519532	189.3760986328125	1000.114868164063	-469.5530700683595	-18.25634002685547	896.924011230469	-400.3283996582032	340.7006225585938	775.6771240234377	-509.458953857422	313.1457519531251	781.4995117187502	-563.2475585937501	339.4387207031251	707.7722778320314	-559.7879638671876	302.7362670898438	708.2949829101564	-605.6945800781251	461.4350891113282	304.2445983886719	-502.6611938476564	453.2984619140626	274.3884582519532	-556.1289062500001	474.6065368652345	246.9347686767579	-506.2207946777345	456.6318664550782	215.7395172119141	-554.1983642578126	504.7799682617189	100.4742279052735	-407.7894592285157	474.170379638672	60.54098510742189	-402.0433044433595	537.3978271484376	64.59461975097658	-415.5653686523439	439.7269287109376	62.92233276367189	-465.6626281738282	545.8230590820314	71.30678558349611	-479.9450683593751	437.0755920410157	76.41709136962892	-525.9571533203126	437.9452209472657	66.14964294433595	-559.5623168945314	480.3858032226564	91.43030548095705	-576.9016113281251	550.0329589843751	44.82649993896485	-522.0720825195314	430.9033203125001	46.09206008911134	-609.4603271484376	479.217742919922	57.13444900512697	-636.9039306640626	548.3071899414064	34.49080276489259	-601.2336425781251	454.7867736816407	36.58535766601563	-691.8489379882814	22.26774978637696	598.6857910156251	-387.6372985839845	-1.182773947715759	604.3834228515626	-443.216033935547	35.6623649597168	532.0288085937501	-439.198699951172	24.11022567749024	543.9295654296876	-498.5556030273439	228.1447296142579	481.965301513672	-258.1662902832032	245.8117065429688	433.4496459960939	-243.9582061767579	259.7521667480469	469.8749084472657	-212.6092376708985	290.2643737792969	423.0144958496095	-208.0996551513672	358.0948486328126	551.1934204101564	-108.0516662597657	346.7593994140626	544.2468261718751	-62.29401779174806	398.5460815429689	560.2874145507814	-85.03572082519533	475.830291748047	353.2245483398438	-102.732162475586	386.9696350097657	356.5485839843751	-37.5140495300293	
32	0.1291666666666667	156.202621459961	1014.813293457031	-260.0420532226563	65.55088806152345	965.068298339844	-230.9930572509766	186.0437622070313	998.830017089844	-486.4283142089845	-22.1418743133545	894.283386230469	-417.6427612304689	337.6528320312501	774.293151855469	-522.4674072265626	310.7657470703126	779.5290527343752	-576.6366577148439	337.2380676269532	705.9231567382814	-572.1779174804689	301.3323974609376	705.9323120117189	-618.7120971679689	460.7908935546876	304.0198974609376	-506.1408691406251	454.2115478515626	273.4441833496094	-559.3812255859376	474.5296936035157	246.7520751953126	-508.6617736816407	457.7557373046876	214.709457397461	-556.5693359375001	504.6786193847657	100.7845840454102	-407.9725036621095	474.0734252929689	60.93477630615236	-402.2811279296876	537.4036254882814	64.96862030029298	-415.6931152343751	439.906951904297	63.07207107543947	-465.8899230957032	546.0134887695314	71.5851287841797	-480.0252990722657	437.2896118164064	76.39633178710939	-526.2561645507814	438.2352600097657	66.16143035888673	-559.8112182617189	480.8663330078126	91.27230834960939	-577.0306396484376	550.2667236328126	44.83095169067384	-522.1622314453126	431.2724914550782	46.12295532226563	-609.6563110351564	479.6356811523439	56.949031829834	-637.0249633789064	548.6472778320314	34.27583312988282	-601.3492431640626	454.9573974609376	36.45080184936524	-691.8554687500001	11.3329496383667	600.4750976562501	-412.1479492187501	-12.48955249786377	608.3427734375001	-467.2142028808595	23.21378135681153	535.0697631835939	-466.3370056152345	11.6367359161377	549.7838134765626	-524.8101196289064	216.4536285400391	481.2744750976564	-288.7064514160157	233.9706268310547	432.5197143554689	-275.8041381835938	248.1986083984376	467.8198547363282	-243.8482208251954	278.7166137695313	420.6229858398439	-240.4482574462891	348.2181701660157	546.5100708007814	-137.5276031494141	338.0198974609376	537.5627441406251	-91.97914886474611	389.0216369628907	554.4436035156251	-114.5557632446289	464.1207885742189	347.5051879882813	-140.1558227539063	375.3629150390626	349.2452087402344	-73.73231506347658	
